<mxfile host="app.diagrams.net" modified="2023-06-28T16:01:13.760Z" agent="Mozilla/5.0 (Windows NT 10.0; Win64; x64) AppleWebKit/537.36 (KHTML, like Gecko) Chrome/114.0.0.0 Safari/537.36 Edg/114.0.1823.58" etag="Zg3gD97dFOORiDuSFVtK" version="21.5.1" type="device">
  <diagram name="Page-1" id="hh932eutqQCeLG9CE4Ng">
    <mxGraphModel dx="1247" dy="1785" grid="1" gridSize="10" guides="1" tooltips="1" connect="1" arrows="1" fold="1" page="1" pageScale="1" pageWidth="850" pageHeight="1100" math="0" shadow="0">
      <root>
        <mxCell id="0" />
        <mxCell id="1" parent="0" />
        <mxCell id="B8qjauAhTTX-YfYlPJ6S-7" style="edgeStyle=orthogonalEdgeStyle;rounded=0;orthogonalLoop=1;jettySize=auto;html=1;" parent="1" source="B8qjauAhTTX-YfYlPJ6S-2" target="B8qjauAhTTX-YfYlPJ6S-4" edge="1">
          <mxGeometry relative="1" as="geometry" />
        </mxCell>
        <mxCell id="B8qjauAhTTX-YfYlPJ6S-2" value="Instructor&lt;br&gt;model" style="ellipse;whiteSpace=wrap;html=1;" parent="1" vertex="1">
          <mxGeometry x="345" y="150" width="80" height="60" as="geometry" />
        </mxCell>
        <mxCell id="B8qjauAhTTX-YfYlPJ6S-4" value="Vectorized&lt;br&gt;query" style="shape=step;perimeter=stepPerimeter;whiteSpace=wrap;html=1;fixedSize=1;rounded=0;fillColor=#647687;fontColor=#ffffff;strokeColor=#314354;" parent="1" vertex="1">
          <mxGeometry x="440" y="160" width="120" height="40" as="geometry" />
        </mxCell>
        <mxCell id="B8qjauAhTTX-YfYlPJ6S-9" value="Chromadb" style="rounded=1;whiteSpace=wrap;html=1;fillColor=#1ba1e2;fontColor=#ffffff;strokeColor=#006EAF;" parent="1" vertex="1">
          <mxGeometry x="570" y="160" width="70" height="120" as="geometry" />
        </mxCell>
        <mxCell id="B8qjauAhTTX-YfYlPJ6S-14" style="edgeStyle=orthogonalEdgeStyle;rounded=0;orthogonalLoop=1;jettySize=auto;html=1;entryX=1;entryY=0.5;entryDx=0;entryDy=0;" parent="1" source="B8qjauAhTTX-YfYlPJ6S-10" target="B8qjauAhTTX-YfYlPJ6S-24" edge="1">
          <mxGeometry relative="1" as="geometry">
            <mxPoint x="769.9999999999998" y="240" as="targetPoint" />
          </mxGeometry>
        </mxCell>
        <mxCell id="B8qjauAhTTX-YfYlPJ6S-10" value="Textual&lt;br&gt;document&lt;br&gt;indexes" style="rounded=1;whiteSpace=wrap;html=1;fillColor=#1ba1e2;fontColor=#ffffff;strokeColor=#006EAF;" parent="1" vertex="1">
          <mxGeometry x="760" y="160" width="80" height="120" as="geometry" />
        </mxCell>
        <mxCell id="B8qjauAhTTX-YfYlPJ6S-12" style="edgeStyle=orthogonalEdgeStyle;rounded=0;orthogonalLoop=1;jettySize=auto;html=1;entryX=1;entryY=0.5;entryDx=0;entryDy=0;exitX=0;exitY=0.5;exitDx=0;exitDy=0;" parent="1" source="B8qjauAhTTX-YfYlPJ6S-24" target="B8qjauAhTTX-YfYlPJ6S-9" edge="1">
          <mxGeometry relative="1" as="geometry">
            <mxPoint x="660.0000363324204" y="240.0344827586208" as="sourcePoint" />
          </mxGeometry>
        </mxCell>
        <mxCell id="B8qjauAhTTX-YfYlPJ6S-23" style="edgeStyle=orthogonalEdgeStyle;rounded=0;orthogonalLoop=1;jettySize=auto;html=1;entryX=1;entryY=0.5;entryDx=0;entryDy=0;" parent="1" source="B8qjauAhTTX-YfYlPJ6S-22" target="uROtnzAx9X5Tsi-1OuP4-3" edge="1">
          <mxGeometry relative="1" as="geometry">
            <mxPoint x="320" y="260" as="targetPoint" />
          </mxGeometry>
        </mxCell>
        <mxCell id="B8qjauAhTTX-YfYlPJ6S-22" value="Most similar &lt;br&gt;vectors" style="shape=step;perimeter=stepPerimeter;whiteSpace=wrap;html=1;fixedSize=1;rounded=0;size=20;rotation=0;direction=west;flipH=0;flipV=1;fillColor=#647687;fontColor=#ffffff;strokeColor=#314354;" parent="1" vertex="1">
          <mxGeometry x="440" y="240" width="120" height="40" as="geometry" />
        </mxCell>
        <mxCell id="B8qjauAhTTX-YfYlPJ6S-24" value="Instructor&lt;br&gt;model" style="ellipse;whiteSpace=wrap;html=1;" parent="1" vertex="1">
          <mxGeometry x="660" y="190" width="80" height="60" as="geometry" />
        </mxCell>
        <mxCell id="ORxg5ABxXIIm0i5PQpDy-5" style="edgeStyle=orthogonalEdgeStyle;rounded=0;orthogonalLoop=1;jettySize=auto;html=1;entryX=0;entryY=0.5;entryDx=0;entryDy=0;exitX=1;exitY=0.5;exitDx=0;exitDy=0;" parent="1" source="uROtnzAx9X5Tsi-1OuP4-5" target="ORxg5ABxXIIm0i5PQpDy-3" edge="1">
          <mxGeometry relative="1" as="geometry">
            <mxPoint x="330" y="-270" as="sourcePoint" />
          </mxGeometry>
        </mxCell>
        <mxCell id="ORxg5ABxXIIm0i5PQpDy-6" style="edgeStyle=orthogonalEdgeStyle;rounded=0;orthogonalLoop=1;jettySize=auto;html=1;entryX=0;entryY=0.5;entryDx=0;entryDy=0;" parent="1" source="ORxg5ABxXIIm0i5PQpDy-2" target="ORxg5ABxXIIm0i5PQpDy-3" edge="1">
          <mxGeometry relative="1" as="geometry" />
        </mxCell>
        <mxCell id="uROtnzAx9X5Tsi-1OuP4-11" style="edgeStyle=orthogonalEdgeStyle;rounded=0;orthogonalLoop=1;jettySize=auto;html=1;entryX=0;entryY=0.5;entryDx=0;entryDy=0;" edge="1" parent="1" source="ORxg5ABxXIIm0i5PQpDy-3" target="uROtnzAx9X5Tsi-1OuP4-10">
          <mxGeometry relative="1" as="geometry" />
        </mxCell>
        <mxCell id="ORxg5ABxXIIm0i5PQpDy-3" value="TF-IDF/BM25" style="ellipse;whiteSpace=wrap;html=1;" parent="1" vertex="1">
          <mxGeometry x="410" y="-240" width="100" height="70" as="geometry" />
        </mxCell>
        <mxCell id="uROtnzAx9X5Tsi-1OuP4-4" value="" style="edgeStyle=orthogonalEdgeStyle;rounded=0;orthogonalLoop=1;jettySize=auto;html=1;" edge="1" parent="1" source="uROtnzAx9X5Tsi-1OuP4-2" target="B8qjauAhTTX-YfYlPJ6S-2">
          <mxGeometry relative="1" as="geometry" />
        </mxCell>
        <mxCell id="uROtnzAx9X5Tsi-1OuP4-2" value="Search query" style="rounded=1;whiteSpace=wrap;html=1;fillColor=#647687;fontColor=#ffffff;strokeColor=#314354;" vertex="1" parent="1">
          <mxGeometry x="230" y="155" width="90" height="50" as="geometry" />
        </mxCell>
        <mxCell id="uROtnzAx9X5Tsi-1OuP4-3" value="Search results" style="rounded=1;whiteSpace=wrap;html=1;fillColor=#1ba1e2;fontColor=#ffffff;strokeColor=#006EAF;" vertex="1" parent="1">
          <mxGeometry x="230" y="235" width="90" height="50" as="geometry" />
        </mxCell>
        <mxCell id="uROtnzAx9X5Tsi-1OuP4-17" style="edgeStyle=orthogonalEdgeStyle;rounded=0;orthogonalLoop=1;jettySize=auto;html=1;entryX=0;entryY=0.5;entryDx=0;entryDy=0;" edge="1" parent="1" source="uROtnzAx9X5Tsi-1OuP4-5" target="uROtnzAx9X5Tsi-1OuP4-14">
          <mxGeometry relative="1" as="geometry" />
        </mxCell>
        <mxCell id="uROtnzAx9X5Tsi-1OuP4-5" value="Search query" style="rounded=1;whiteSpace=wrap;html=1;fillColor=#647687;fontColor=#ffffff;strokeColor=#314354;" vertex="1" parent="1">
          <mxGeometry x="230" y="-220" width="100" height="50" as="geometry" />
        </mxCell>
        <mxCell id="uROtnzAx9X5Tsi-1OuP4-7" style="edgeStyle=orthogonalEdgeStyle;rounded=0;orthogonalLoop=1;jettySize=auto;html=1;entryX=0;entryY=0.5;entryDx=0;entryDy=0;" edge="1" parent="1" source="ORxg5ABxXIIm0i5PQpDy-2" target="ORxg5ABxXIIm0i5PQpDy-3">
          <mxGeometry relative="1" as="geometry" />
        </mxCell>
        <mxCell id="uROtnzAx9X5Tsi-1OuP4-18" style="edgeStyle=orthogonalEdgeStyle;rounded=0;orthogonalLoop=1;jettySize=auto;html=1;entryX=0;entryY=0.5;entryDx=0;entryDy=0;" edge="1" parent="1" source="uROtnzAx9X5Tsi-1OuP4-6" target="uROtnzAx9X5Tsi-1OuP4-14">
          <mxGeometry relative="1" as="geometry" />
        </mxCell>
        <mxCell id="uROtnzAx9X5Tsi-1OuP4-6" value="Positive contents" style="rounded=1;whiteSpace=wrap;html=1;fillColor=#647687;fontColor=#ffffff;strokeColor=#314354;" vertex="1" parent="1">
          <mxGeometry x="230" y="-140" width="100" height="50" as="geometry" />
        </mxCell>
        <mxCell id="uROtnzAx9X5Tsi-1OuP4-8" value="" style="edgeStyle=orthogonalEdgeStyle;rounded=0;orthogonalLoop=1;jettySize=auto;html=1;entryX=0;entryY=0.5;entryDx=0;entryDy=0;" edge="1" parent="1" source="uROtnzAx9X5Tsi-1OuP4-6" target="ORxg5ABxXIIm0i5PQpDy-3">
          <mxGeometry relative="1" as="geometry">
            <mxPoint x="330" y="-205" as="sourcePoint" />
            <mxPoint x="410" y="-205" as="targetPoint" />
          </mxGeometry>
        </mxCell>
        <mxCell id="uROtnzAx9X5Tsi-1OuP4-19" style="edgeStyle=orthogonalEdgeStyle;rounded=0;orthogonalLoop=1;jettySize=auto;html=1;entryX=0;entryY=0.5;entryDx=0;entryDy=0;" edge="1" parent="1" source="ORxg5ABxXIIm0i5PQpDy-2" target="uROtnzAx9X5Tsi-1OuP4-14">
          <mxGeometry relative="1" as="geometry" />
        </mxCell>
        <mxCell id="ORxg5ABxXIIm0i5PQpDy-2" value="Textual&lt;br&gt;document&lt;br&gt;indexes" style="rounded=1;whiteSpace=wrap;html=1;fillColor=#1ba1e2;fontColor=#ffffff;strokeColor=#006EAF;" parent="1" vertex="1">
          <mxGeometry x="230" y="-60" width="100" height="70" as="geometry" />
        </mxCell>
        <mxCell id="uROtnzAx9X5Tsi-1OuP4-13" style="edgeStyle=orthogonalEdgeStyle;rounded=0;orthogonalLoop=1;jettySize=auto;html=1;entryX=0;entryY=0.5;entryDx=0;entryDy=0;" edge="1" parent="1" source="uROtnzAx9X5Tsi-1OuP4-10" target="uROtnzAx9X5Tsi-1OuP4-12">
          <mxGeometry relative="1" as="geometry" />
        </mxCell>
        <mxCell id="uROtnzAx9X5Tsi-1OuP4-10" value="Triplets&lt;br&gt;(query,pos,neg)" style="rounded=0;whiteSpace=wrap;html=1;fillColor=#647687;fontColor=#ffffff;strokeColor=#314354;" vertex="1" parent="1">
          <mxGeometry x="560" y="-230" width="100" height="50" as="geometry" />
        </mxCell>
        <mxCell id="uROtnzAx9X5Tsi-1OuP4-47" style="edgeStyle=orthogonalEdgeStyle;rounded=0;orthogonalLoop=1;jettySize=auto;html=1;entryX=1;entryY=0.5;entryDx=0;entryDy=0;" edge="1" parent="1" source="uROtnzAx9X5Tsi-1OuP4-12" target="uROtnzAx9X5Tsi-1OuP4-42">
          <mxGeometry relative="1" as="geometry">
            <mxPoint x="765" y="-90" as="targetPoint" />
            <Array as="points">
              <mxPoint x="765" y="-105" />
            </Array>
          </mxGeometry>
        </mxCell>
        <mxCell id="uROtnzAx9X5Tsi-1OuP4-12" value="Fine-tune Instructor Embedding model" style="ellipse;whiteSpace=wrap;html=1;" vertex="1" parent="1">
          <mxGeometry x="700" y="-240" width="130" height="70" as="geometry" />
        </mxCell>
        <mxCell id="uROtnzAx9X5Tsi-1OuP4-31" style="edgeStyle=orthogonalEdgeStyle;rounded=0;orthogonalLoop=1;jettySize=auto;html=1;entryX=0;entryY=0.5;entryDx=0;entryDy=0;" edge="1" parent="1" source="uROtnzAx9X5Tsi-1OuP4-14" target="uROtnzAx9X5Tsi-1OuP4-29">
          <mxGeometry relative="1" as="geometry" />
        </mxCell>
        <mxCell id="uROtnzAx9X5Tsi-1OuP4-14" value="Instructor&lt;br&gt;model" style="ellipse;whiteSpace=wrap;html=1;" vertex="1" parent="1">
          <mxGeometry x="410" y="-50" width="100" height="70" as="geometry" />
        </mxCell>
        <mxCell id="uROtnzAx9X5Tsi-1OuP4-33" style="edgeStyle=orthogonalEdgeStyle;rounded=0;orthogonalLoop=1;jettySize=auto;html=1;entryX=0;entryY=0.5;entryDx=0;entryDy=0;" edge="1" parent="1" source="uROtnzAx9X5Tsi-1OuP4-29" target="uROtnzAx9X5Tsi-1OuP4-34">
          <mxGeometry relative="1" as="geometry">
            <mxPoint x="710.0000000000002" y="-15" as="targetPoint" />
          </mxGeometry>
        </mxCell>
        <mxCell id="uROtnzAx9X5Tsi-1OuP4-29" value="Triplets&lt;br&gt;(query,pos,neg)" style="rounded=0;whiteSpace=wrap;html=1;fillColor=#647687;fontColor=#ffffff;strokeColor=#314354;" vertex="1" parent="1">
          <mxGeometry x="560" y="-40" width="100" height="50" as="geometry" />
        </mxCell>
        <mxCell id="uROtnzAx9X5Tsi-1OuP4-36" style="edgeStyle=orthogonalEdgeStyle;rounded=0;orthogonalLoop=1;jettySize=auto;html=1;entryX=0.5;entryY=0;entryDx=0;entryDy=0;" edge="1" parent="1" source="uROtnzAx9X5Tsi-1OuP4-34" target="uROtnzAx9X5Tsi-1OuP4-48">
          <mxGeometry relative="1" as="geometry">
            <mxPoint x="775" y="50" as="targetPoint" />
          </mxGeometry>
        </mxCell>
        <mxCell id="uROtnzAx9X5Tsi-1OuP4-34" value="Fine-tune Instructor Embedding model" style="ellipse;whiteSpace=wrap;html=1;" vertex="1" parent="1">
          <mxGeometry x="710" y="-50" width="130" height="70" as="geometry" />
        </mxCell>
        <mxCell id="uROtnzAx9X5Tsi-1OuP4-37" value="Inference" style="text;html=1;strokeColor=none;fillColor=none;align=left;verticalAlign=middle;whiteSpace=wrap;rounded=0;fontStyle=1;fontSize=20;" vertex="1" parent="1">
          <mxGeometry x="230" y="110" width="90" height="30" as="geometry" />
        </mxCell>
        <mxCell id="uROtnzAx9X5Tsi-1OuP4-38" value="Fine-tune" style="text;html=1;strokeColor=none;fillColor=none;align=left;verticalAlign=middle;whiteSpace=wrap;rounded=0;fontStyle=1;fontSize=20;" vertex="1" parent="1">
          <mxGeometry x="230" y="-270" width="100" height="30" as="geometry" />
        </mxCell>
        <mxCell id="uROtnzAx9X5Tsi-1OuP4-45" style="edgeStyle=orthogonalEdgeStyle;rounded=0;orthogonalLoop=1;jettySize=auto;html=1;entryX=0.5;entryY=0;entryDx=0;entryDy=0;" edge="1" parent="1" source="uROtnzAx9X5Tsi-1OuP4-42" target="uROtnzAx9X5Tsi-1OuP4-14">
          <mxGeometry relative="1" as="geometry" />
        </mxCell>
        <mxCell id="uROtnzAx9X5Tsi-1OuP4-42" value="Instructor FT model stage 1" style="rounded=0;whiteSpace=wrap;html=1;fillColor=#e3c800;fontColor=#000000;strokeColor=#B09500;" vertex="1" parent="1">
          <mxGeometry x="560" y="-130" width="100" height="50" as="geometry" />
        </mxCell>
        <mxCell id="uROtnzAx9X5Tsi-1OuP4-48" value="Instructor FT model stage 2" style="rounded=0;whiteSpace=wrap;html=1;fillColor=#e3c800;fontColor=#000000;strokeColor=#B09500;" vertex="1" parent="1">
          <mxGeometry x="725" y="50" width="100" height="50" as="geometry" />
        </mxCell>
      </root>
    </mxGraphModel>
  </diagram>
</mxfile>
